<svg xmlns="http://www.w3.org/2000/svg" xmlns:xlink="http://www.w3.org/1999/xlink" width="500" zoomAndPan="magnify" viewBox="0 0 375 374.999991" height="500" preserveAspectRatio="xMidYMid meet" version="1.0"><defs><g/><clipPath id="id1"><path d="M 52 144 L 116 144 L 116 214 L 52 214 Z M 52 144 " clip-rule="nonzero"/></clipPath><clipPath id="id2"><path d="M 52.816406 144.707031 L 115.816406 144.6875 L 115.839844 213.6875 L 52.839844 213.707031 Z M 52.816406 144.707031 " clip-rule="nonzero"/></clipPath><clipPath id="id3"><path d="M 49.703125 144.707031 L 118.703125 144.6875 L 118.722656 213.6875 L 49.722656 213.707031 Z M 49.703125 144.707031 " clip-rule="nonzero"/></clipPath></defs><g clip-path="url(#id1)"><g clip-path="url(#id2)"><g clip-path="url(#id3)"><path fill="rgb(100%, 8.628845%, 8.628845%)" d="M 49.703125 144.707031 L 118.703125 144.6875 L 118.722656 213.6875 L 49.722656 213.707031 Z M 49.703125 144.707031 " fill-opacity="1" fill-rule="nonzero"/></g></g></g><g fill="rgb(0%, 0%, 0%)" fill-opacity="1"><g transform="translate(118.963919, 204.05877)"><g><path d="M 5.625 -3.75 C 2.78125 -6.851562 1.359375 -10.65625 1.359375 -15.15625 C 1.359375 -19.664062 2.78125 -23.476562 5.625 -26.59375 C 8.46875 -29.71875 12.082031 -31.28125 16.46875 -31.28125 C 20.5 -31.28125 23.816406 -30.015625 26.421875 -27.484375 L 26.421875 -30.390625 L 36.90625 -30.390625 L 36.90625 0 L 26.546875 0 L 26.546875 -3.4375 L 26.421875 -3.4375 C 23.816406 -0.550781 20.5 0.890625 16.46875 0.890625 C 12.082031 0.890625 8.46875 -0.65625 5.625 -3.75 Z M 14.546875 -20.328125 C 13.179688 -18.984375 12.5 -17.265625 12.5 -15.171875 C 12.5 -13.078125 13.148438 -11.367188 14.453125 -10.046875 C 15.753906 -8.722656 17.472656 -8.0625 19.609375 -8.0625 C 21.660156 -8.0625 23.347656 -8.734375 24.671875 -10.078125 C 25.992188 -11.421875 26.65625 -13.117188 26.65625 -15.171875 C 26.65625 -17.265625 25.972656 -18.984375 24.609375 -20.328125 C 23.253906 -21.671875 21.585938 -22.34375 19.609375 -22.34375 C 17.597656 -22.34375 15.910156 -21.671875 14.546875 -20.328125 Z M 14.546875 -20.328125 "/></g></g></g><g fill="rgb(0%, 0%, 0%)" fill-opacity="1"><g transform="translate(159.431667, 204.05877)"><g><path d="M 5.328125 -30.390625 L 5.328125 -41.71875 L 15.8125 -41.71875 L 15.8125 -30.390625 L 22.21875 -30.390625 L 22.21875 -22.390625 L 15.8125 -22.390625 L 15.8125 -12.734375 C 15.8125 -9.929688 16.601562 -8.53125 18.1875 -8.53125 C 18.582031 -8.53125 18.992188 -8.609375 19.421875 -8.765625 C 19.859375 -8.921875 20.195312 -9.082031 20.4375 -9.25 L 20.796875 -9.484375 L 23.40625 -1 C 21.15625 0.257812 18.585938 0.890625 15.703125 0.890625 C 13.722656 0.890625 12.019531 0.546875 10.59375 -0.140625 C 9.175781 -0.835938 8.101562 -1.769531 7.375 -2.9375 C 6.644531 -4.101562 6.117188 -5.328125 5.796875 -6.609375 C 5.484375 -7.890625 5.328125 -9.257812 5.328125 -10.71875 L 5.328125 -22.390625 L 0.953125 -22.390625 L 0.953125 -30.390625 Z M 5.328125 -30.390625 "/></g></g></g><g fill="rgb(0%, 0%, 0%)" fill-opacity="1"><g transform="translate(182.835417, 204.05877)"><g><path d="M 10.3125 -12.671875 C 12.207031 -12.671875 13.816406 -12.007812 15.140625 -10.6875 C 16.460938 -9.363281 17.125 -7.753906 17.125 -5.859375 C 17.125 -4.003906 16.460938 -2.414062 15.140625 -1.09375 C 13.816406 0.226562 12.207031 0.890625 10.3125 0.890625 C 8.457031 0.890625 6.867188 0.226562 5.546875 -1.09375 C 4.222656 -2.414062 3.5625 -4.003906 3.5625 -5.859375 C 3.5625 -7.753906 4.222656 -9.363281 5.546875 -10.6875 C 6.867188 -12.007812 8.457031 -12.671875 10.3125 -12.671875 Z M 10.3125 -12.671875 "/></g></g></g><g fill="rgb(0%, 0%, 0%)" fill-opacity="1"><g transform="translate(203.513665, 204.05877)"><g><path d="M 21.5625 -49.765625 C 24.207031 -49.765625 26.796875 -49.378906 29.328125 -48.609375 C 31.859375 -47.835938 33.734375 -47.078125 34.953125 -46.328125 L 36.734375 -45.15625 L 32.234375 -36.265625 C 31.878906 -36.492188 31.382812 -36.796875 30.75 -37.171875 C 30.113281 -37.554688 28.925781 -38.0625 27.1875 -38.6875 C 25.457031 -39.320312 23.84375 -39.640625 22.34375 -39.640625 C 20.476562 -39.640625 19.039062 -39.242188 18.03125 -38.453125 C 17.03125 -37.660156 16.53125 -36.59375 16.53125 -35.25 C 16.53125 -34.582031 16.765625 -33.960938 17.234375 -33.390625 C 17.710938 -32.816406 18.523438 -32.203125 19.671875 -31.546875 C 20.816406 -30.898438 21.820312 -30.378906 22.6875 -29.984375 C 23.5625 -29.585938 24.90625 -28.992188 26.71875 -28.203125 C 29.882812 -26.859375 32.582031 -25.03125 34.8125 -22.71875 C 37.039062 -20.40625 38.15625 -17.789062 38.15625 -14.875 C 38.15625 -12.070312 37.648438 -9.625 36.640625 -7.53125 C 35.640625 -5.4375 34.257812 -3.796875 32.5 -2.609375 C 30.738281 -1.421875 28.789062 -0.539062 26.65625 0.03125 C 24.53125 0.601562 22.222656 0.890625 19.734375 0.890625 C 17.597656 0.890625 15.503906 0.671875 13.453125 0.234375 C 11.398438 -0.203125 9.679688 -0.742188 8.296875 -1.390625 C 6.910156 -2.046875 5.664062 -2.6875 4.5625 -3.3125 C 3.457031 -3.945312 2.648438 -4.484375 2.140625 -4.921875 L 1.359375 -5.5625 L 6.9375 -14.9375 C 7.40625 -14.539062 8.050781 -14.035156 8.875 -13.421875 C 9.707031 -12.804688 11.179688 -11.984375 13.296875 -10.953125 C 15.410156 -9.929688 17.28125 -9.421875 18.90625 -9.421875 C 23.601562 -9.421875 25.953125 -11.019531 25.953125 -14.21875 C 25.953125 -14.894531 25.78125 -15.519531 25.4375 -16.09375 C 25.101562 -16.664062 24.507812 -17.234375 23.65625 -17.796875 C 22.8125 -18.367188 22.0625 -18.820312 21.40625 -19.15625 C 20.757812 -19.5 19.695312 -20.015625 18.21875 -20.703125 C 16.738281 -21.398438 15.644531 -21.925781 14.9375 -22.28125 C 11.96875 -23.738281 9.671875 -25.5625 8.046875 -27.75 C 6.429688 -29.945312 5.625 -32.3125 5.625 -34.84375 C 5.625 -39.226562 7.242188 -42.8125 10.484375 -45.59375 C 13.722656 -48.375 17.414062 -49.765625 21.5625 -49.765625 Z M 21.5625 -49.765625 "/></g></g></g><g fill="rgb(0%, 0%, 0%)" fill-opacity="1"><g transform="translate(243.32966, 204.05877)"><g><path d="M 26.609375 -30.390625 L 38.6875 -30.390625 L 14.8125 15.40625 L 2.71875 15.40625 L 13.21875 -4.734375 L -1.1875 -30.390625 L 10.90625 -30.390625 L 19.375 -14.8125 Z M 26.609375 -30.390625 "/></g></g></g><g fill="rgb(0%, 0%, 0%)" fill-opacity="1"><g transform="translate(280.834911, 204.05877)"><g><path d="M 16.765625 -31.28125 C 18.503906 -31.28125 20.222656 -31.082031 21.921875 -30.6875 C 23.617188 -30.289062 24.882812 -29.894531 25.71875 -29.5 L 26.953125 -28.90625 L 23.515625 -22.046875 C 21.148438 -23.304688 18.898438 -23.9375 16.765625 -23.9375 C 15.578125 -23.9375 14.738281 -23.804688 14.25 -23.546875 C 13.757812 -23.296875 13.515625 -22.8125 13.515625 -22.09375 C 13.515625 -21.9375 13.53125 -21.78125 13.5625 -21.625 C 13.601562 -21.46875 13.679688 -21.316406 13.796875 -21.171875 C 13.921875 -21.035156 14.03125 -20.914062 14.125 -20.8125 C 14.226562 -20.71875 14.394531 -20.613281 14.625 -20.5 C 14.863281 -20.382812 15.050781 -20.296875 15.1875 -20.234375 C 15.332031 -20.171875 15.5625 -20.082031 15.875 -19.96875 C 16.195312 -19.851562 16.4375 -19.765625 16.59375 -19.703125 C 16.75 -19.640625 17.015625 -19.546875 17.390625 -19.421875 C 17.765625 -19.304688 18.050781 -19.234375 18.25 -19.203125 C 19.46875 -18.835938 20.53125 -18.4375 21.4375 -18 C 22.351562 -17.570312 23.3125 -16.984375 24.3125 -16.234375 C 25.320312 -15.484375 26.101562 -14.535156 26.65625 -13.390625 C 27.207031 -12.242188 27.484375 -10.941406 27.484375 -9.484375 C 27.484375 -2.566406 22.6875 0.890625 13.09375 0.890625 C 10.914062 0.890625 8.847656 0.554688 6.890625 -0.109375 C 4.941406 -0.785156 3.535156 -1.460938 2.671875 -2.140625 L 1.359375 -3.203125 L 5.625 -10.375 C 5.945312 -10.09375 6.363281 -9.765625 6.875 -9.390625 C 7.382812 -9.015625 8.3125 -8.5 9.65625 -7.84375 C 11 -7.195312 12.164062 -6.875 13.15625 -6.875 C 15.320312 -6.875 16.40625 -7.601562 16.40625 -9.0625 C 16.40625 -9.738281 16.128906 -10.265625 15.578125 -10.640625 C 15.023438 -11.015625 14.085938 -11.4375 12.765625 -11.90625 C 11.441406 -12.382812 10.40625 -12.820312 9.65625 -13.21875 C 7.757812 -14.195312 6.257812 -15.304688 5.15625 -16.546875 C 4.050781 -17.796875 3.5 -19.445312 3.5 -21.5 C 3.5 -24.582031 4.691406 -26.984375 7.078125 -28.703125 C 9.472656 -30.421875 12.703125 -31.28125 16.765625 -31.28125 Z M 16.765625 -31.28125 "/></g></g></g><g fill="rgb(100%, 100%, 100%)" fill-opacity="1"><g transform="translate(62.459016, 204.05877)"><g><path d="M 3.5625 -48.875 L 17.71875 -48.875 C 24.507812 -48.875 30.3125 -46.550781 35.125 -41.90625 C 39.945312 -37.269531 42.359375 -31.457031 42.359375 -24.46875 C 42.359375 -17.4375 39.957031 -11.597656 35.15625 -6.953125 C 30.363281 -2.316406 24.550781 0 17.71875 0 L 3.5625 0 Z M 14.6875 -9.953125 L 16.40625 -9.953125 C 20.476562 -9.953125 23.804688 -11.320312 26.390625 -14.0625 C 28.984375 -16.8125 30.300781 -20.257812 30.34375 -24.40625 C 30.34375 -28.550781 29.046875 -32.003906 26.453125 -34.765625 C 23.867188 -37.535156 20.519531 -38.921875 16.40625 -38.921875 L 14.6875 -38.921875 Z M 14.6875 -9.953125 "/></g></g></g><g fill="rgb(0%, 0%, 0%)" fill-opacity="1"><g transform="translate(266.090895, 225.944839)"><g><path d="M 3.722656 -8.332031 C 2.003906 -8.332031 0.851562 -7.488281 0.851562 -6.1875 C 0.851562 -3.210938 5.523438 -4.371094 5.511719 -2.191406 C 5.511719 -1.398438 4.765625 -0.914062 3.566406 -0.914062 C 2.628906 -0.914062 1.574219 -1.339844 0.804688 -2.085938 L 0.378906 -1.230469 C 1.160156 -0.484375 2.347656 0.0351562 3.554688 0.0351562 C 5.332031 0.0351562 6.554688 -0.851562 6.554688 -2.238281 C 6.566406 -5.25 1.894531 -4.136719 1.894531 -6.269531 C 1.894531 -6.96875 2.59375 -7.371094 3.660156 -7.371094 C 4.324219 -7.371094 5.203125 -7.167969 5.949219 -6.671875 L 6.351562 -7.558594 C 5.664062 -8.023438 4.679688 -8.332031 3.722656 -8.332031 Z M 3.722656 -8.332031 "/></g></g></g><g fill="rgb(0%, 0%, 0%)" fill-opacity="1"><g transform="translate(273.329821, 225.944839)"><g><path d="M 4.824219 -8.320312 C 2.394531 -8.320312 0.472656 -6.492188 0.472656 -4.148438 C 0.472656 -1.8125 2.394531 0.046875 4.824219 0.046875 C 7.242188 0.046875 9.160156 -1.8125 9.160156 -4.148438 C 9.160156 -6.480469 7.242188 -8.320312 4.824219 -8.320312 Z M 4.824219 -7.417969 C 6.671875 -7.417969 8.1875 -5.972656 8.1875 -4.148438 C 8.1875 -2.324219 6.671875 -0.863281 4.824219 -0.863281 C 2.972656 -0.863281 1.433594 -2.324219 1.433594 -4.148438 C 1.433594 -5.972656 2.972656 -7.417969 4.824219 -7.417969 Z M 4.824219 -7.417969 "/></g></g></g><g fill="rgb(0%, 0%, 0%)" fill-opacity="1"><g transform="translate(282.96198, 225.944839)"><g><path d="M 2.203125 -0.902344 L 2.203125 -8.296875 L 1.257812 -8.296875 L 1.257812 0 L 5.84375 0 L 5.84375 -0.902344 Z M 2.203125 -0.902344 "/></g></g></g><g fill="rgb(0%, 0%, 0%)" fill-opacity="1"><g transform="translate(289.087224, 225.944839)"><g><path d="M 8.035156 -8.296875 L 7.085938 -8.296875 L 7.085938 -3.414062 C 7.085938 -1.800781 6.136719 -0.863281 4.5625 -0.863281 C 2.984375 -0.863281 2.015625 -1.800781 2.015625 -3.414062 L 2.015625 -8.296875 L 1.066406 -8.296875 L 1.066406 -3.414062 C 1.066406 -1.257812 2.382812 0.046875 4.5625 0.046875 C 6.730469 0.046875 8.035156 -1.257812 8.035156 -3.414062 Z M 8.035156 -8.296875 "/></g></g></g><g fill="rgb(0%, 0%, 0%)" fill-opacity="1"><g transform="translate(298.186238, 225.944839)"><g><path d="M 6.492188 -7.382812 L 6.492188 -8.296875 L 0.128906 -8.296875 L 0.128906 -7.382812 L 2.832031 -7.382812 L 2.832031 0 L 3.78125 0 L 3.78125 -7.382812 Z M 6.492188 -7.382812 "/></g></g></g><g fill="rgb(0%, 0%, 0%)" fill-opacity="1"><g transform="translate(304.797237, 225.944839)"><g><path d="M 2.203125 0 L 2.203125 -8.296875 L 1.257812 -8.296875 L 1.257812 0 Z M 2.203125 0 "/></g></g></g><g fill="rgb(0%, 0%, 0%)" fill-opacity="1"><g transform="translate(308.256763, 225.944839)"><g><path d="M 4.824219 -8.320312 C 2.394531 -8.320312 0.472656 -6.492188 0.472656 -4.148438 C 0.472656 -1.8125 2.394531 0.046875 4.824219 0.046875 C 7.242188 0.046875 9.160156 -1.8125 9.160156 -4.148438 C 9.160156 -6.480469 7.242188 -8.320312 4.824219 -8.320312 Z M 4.824219 -7.417969 C 6.671875 -7.417969 8.1875 -5.972656 8.1875 -4.148438 C 8.1875 -2.324219 6.671875 -0.863281 4.824219 -0.863281 C 2.972656 -0.863281 1.433594 -2.324219 1.433594 -4.148438 C 1.433594 -5.972656 2.972656 -7.417969 4.824219 -7.417969 Z M 4.824219 -7.417969 "/></g></g></g><g fill="rgb(0%, 0%, 0%)" fill-opacity="1"><g transform="translate(317.888923, 225.944839)"><g><path d="M 8.152344 0 L 8.152344 -8.296875 L 7.214844 -8.296875 L 7.214844 -1.625 L 2.238281 -8.296875 L 1.257812 -8.296875 L 1.257812 0 L 2.203125 0 L 2.203125 -6.660156 L 7.179688 0 Z M 8.152344 0 "/></g></g></g><g fill="rgb(0%, 0%, 0%)" fill-opacity="1"><g transform="translate(327.307821, 225.944839)"><g><path d="M 3.722656 -8.332031 C 2.003906 -8.332031 0.851562 -7.488281 0.851562 -6.1875 C 0.851562 -3.210938 5.523438 -4.371094 5.511719 -2.191406 C 5.511719 -1.398438 4.765625 -0.914062 3.566406 -0.914062 C 2.628906 -0.914062 1.574219 -1.339844 0.804688 -2.085938 L 0.378906 -1.230469 C 1.160156 -0.484375 2.347656 0.0351562 3.554688 0.0351562 C 5.332031 0.0351562 6.554688 -0.851562 6.554688 -2.238281 C 6.566406 -5.25 1.894531 -4.136719 1.894531 -6.269531 C 1.894531 -6.96875 2.59375 -7.371094 3.660156 -7.371094 C 4.324219 -7.371094 5.203125 -7.167969 5.949219 -6.671875 L 6.351562 -7.558594 C 5.664062 -8.023438 4.679688 -8.332031 3.722656 -8.332031 Z M 3.722656 -8.332031 "/></g></g></g></svg>